# xmcd
#
# Track frame offsets:
#	150
#	22069
#	41257
#	55678
#	81733
#	100711
#	120337
#	136837
#	156529
#	176575
#	193441
#	212689
#	228199
#
# Disc length: 3258 seconds
#
# Revision: 0
# Processed by: cddbd v1.5.2PL0 Copyright (c) Steve Scherf et al.
# Submitted via: EZCDAudioConverter 1.3.1.1
#
DISCID=af0cb80d
DTITLE=Esa Eloranta - Pojasta Mieheksi
DYEAR=2010
DGENRE=
TTITLE0=Poika Julman Maan
TTITLE1=Ikuisesti Sun
TTITLE2=Viiniä Ja Ruusuja
TTITLE3=Suomalainen Unelma
TTITLE4=Pilvenpiirtäjä
TTITLE5=Jäit
TTITLE6=Pysäkki
TTITLE7=Lady Huhtikuu
TTITLE8=Vapaana Syntynyt
TTITLE9=Kaveri
TTITLE10=Routa Sulaa
TTITLE11=Joet
TTITLE12=Peini Mies
EXTD=
EXTT0=
EXTT1=
EXTT2=
EXTT3=
EXTT4=
EXTT5=
EXTT6=
EXTT7=
EXTT8=
EXTT9=
EXTT10=
EXTT11=
EXTT12=
PLAYORDER=
